<svg width="146" height="48" viewBox="0 0 146 48" fill="none" xmlns="http://www.w3.org/2000/svg">
<path d="M1.824 12.6H12.864C15.36 12.6 17.5573 13.0587 19.456 13.976C21.376 14.872 22.8587 16.1627 23.904 17.848C24.9707 19.5333 25.504 21.5173 25.504 23.8C25.504 26.0827 24.9707 28.0667 23.904 29.752C22.8587 31.4373 21.376 32.7387 19.456 33.656C17.5573 34.552 15.36 35 12.864 35H1.824V12.6ZM12.544 29.112C14.1653 29.112 15.456 28.6533 16.416 27.736C17.3973 26.7973 17.888 25.4853 17.888 23.8C17.888 22.1147 17.3973 20.8133 16.416 19.896C15.456 18.9573 14.1653 18.488 12.544 18.488H9.376V29.112H12.544ZM47.2615 35L47.1975 24.792L42.3335 32.984H39.0055L34.1415 25.144V35H27.2615V12.6H33.4695L40.7655 24.536L47.8695 12.6H54.0775L54.1415 35H47.2615ZM72.0568 31.096H63.5448L62.0408 35H54.3607L64.1528 12.6H71.5768L81.3688 35H73.5608L72.0568 31.096ZM69.9768 25.656L67.8008 20.024L65.6248 25.656H69.9768Z" fill="white"/>
<path d="M101.988 14.494C101.988 14.8697 101.928 15.2115 101.809 15.5195C101.69 15.8275 101.522 16.0912 101.305 16.3105C101.088 16.5298 100.827 16.7002 100.521 16.8215C100.218 16.9405 99.8817 17 99.513 17H97.6405V11.9845H99.513C99.8817 11.9845 100.218 12.0452 100.521 12.1665C100.827 12.2855 101.088 12.4558 101.305 12.6775C101.522 12.8968 101.69 13.1605 101.809 13.4685C101.928 13.7765 101.988 14.1183 101.988 14.494ZM101.291 14.494C101.291 14.186 101.249 13.9107 101.165 13.668C101.081 13.4253 100.962 13.22 100.808 13.052C100.654 12.884 100.467 12.7557 100.248 12.667C100.029 12.5783 99.7837 12.534 99.513 12.534H98.3195V16.4505H99.513C99.7837 16.4505 100.029 16.4062 100.248 16.3175C100.467 16.2288 100.654 16.1017 100.808 15.936C100.962 15.768 101.081 15.5627 101.165 15.32C101.249 15.0773 101.291 14.802 101.291 14.494ZM104.645 17H103.966V11.9845H104.645V17ZM111.002 14.5885V16.5135C110.75 16.6955 110.48 16.832 110.193 16.923C109.908 17.0117 109.596 17.056 109.255 17.056C108.851 17.056 108.487 16.9942 108.163 16.8705C107.839 16.7445 107.561 16.5695 107.33 16.3455C107.101 16.1192 106.925 15.8485 106.802 15.5335C106.678 15.2185 106.616 14.872 106.616 14.494C106.616 14.1113 106.676 13.7625 106.795 13.4475C106.916 13.1325 107.087 12.863 107.309 12.639C107.531 12.4127 107.8 12.2377 108.118 12.114C108.435 11.9903 108.79 11.9285 109.182 11.9285C109.38 11.9285 109.564 11.9437 109.735 11.974C109.905 12.002 110.062 12.044 110.207 12.1C110.352 12.1537 110.486 12.2202 110.61 12.2995C110.733 12.3765 110.849 12.464 110.956 12.562L110.764 12.87C110.733 12.9167 110.694 12.947 110.645 12.961C110.598 12.9727 110.545 12.961 110.487 12.926C110.431 12.8933 110.367 12.8537 110.295 12.807C110.222 12.7603 110.134 12.716 110.029 12.674C109.926 12.6297 109.803 12.5923 109.661 12.562C109.521 12.5317 109.354 12.5165 109.161 12.5165C108.878 12.5165 108.623 12.5632 108.394 12.6565C108.165 12.7475 107.971 12.8793 107.81 13.052C107.649 13.2223 107.525 13.43 107.439 13.675C107.352 13.9177 107.309 14.1907 107.309 14.494C107.309 14.809 107.353 15.0913 107.442 15.341C107.533 15.5883 107.661 15.7995 107.827 15.9745C107.995 16.1472 108.198 16.279 108.436 16.37C108.674 16.461 108.941 16.5065 109.238 16.5065C109.471 16.5065 109.677 16.4808 109.857 16.4295C110.039 16.3758 110.216 16.3023 110.389 16.209V15.1065H109.609C109.564 15.1065 109.528 15.0937 109.5 15.068C109.474 15.0423 109.462 15.0108 109.462 14.9735V14.5885H111.002ZM113.72 17H113.041V11.9845H113.72V17ZM119.394 12.555H117.77V17H117.095V12.555H115.467V11.9845H119.394V12.555ZM123.31 15.138L122.522 13.0975C122.499 13.0368 122.475 12.9668 122.449 12.8875C122.423 12.8058 122.399 12.7195 122.375 12.6285C122.326 12.8175 122.276 12.975 122.225 13.101L121.437 15.138H123.31ZM124.724 17H124.199C124.138 17 124.089 16.9848 124.052 16.9545C124.015 16.9242 123.987 16.8857 123.968 16.839L123.499 15.628H121.248L120.779 16.839C120.765 16.881 120.739 16.9183 120.699 16.951C120.659 16.9837 120.61 17 120.552 17H120.027L122.032 11.9845H122.718L124.724 17ZM129.229 16.4295V17H126.384V11.9845H127.059V16.4295H129.229ZM102.859 20.9845V26H102.264V22.3145C102.264 22.2655 102.265 22.213 102.268 22.157C102.272 22.101 102.277 22.0438 102.282 21.9855L100.56 25.1215C100.506 25.2265 100.424 25.279 100.315 25.279H100.217C100.107 25.279 100.025 25.2265 99.9715 25.1215L98.2145 21.9715C98.2285 22.0952 98.2355 22.2095 98.2355 22.3145V26H97.6405V20.9845H98.141C98.2017 20.9845 98.2483 20.9903 98.281 21.002C98.3137 21.0137 98.3452 21.0463 98.3755 21.1L100.108 24.187C100.136 24.243 100.163 24.3013 100.189 24.362C100.217 24.4227 100.242 24.4845 100.266 24.5475C100.289 24.4845 100.313 24.4227 100.339 24.362C100.365 24.299 100.393 24.2395 100.423 24.1835L102.124 21.1C102.152 21.0463 102.182 21.0137 102.215 21.002C102.25 20.9903 102.298 20.9845 102.359 20.9845H102.859ZM107.805 24.138L107.017 22.0975C106.994 22.0368 106.97 21.9668 106.944 21.8875C106.918 21.8058 106.894 21.7195 106.87 21.6285C106.821 21.8175 106.771 21.975 106.72 22.101L105.932 24.138H107.805ZM109.219 26H108.694C108.633 26 108.584 25.9848 108.547 25.9545C108.51 25.9242 108.482 25.8857 108.463 25.839L107.994 24.628H105.743L105.274 25.839C105.26 25.881 105.234 25.9183 105.194 25.951C105.154 25.9837 105.105 26 105.047 26H104.522L106.527 20.9845H107.213L109.219 26ZM112.268 23.4135C112.464 23.4135 112.637 23.3902 112.786 23.3435C112.938 23.2945 113.064 23.2268 113.164 23.1405C113.267 23.0518 113.344 22.9468 113.395 22.8255C113.447 22.7042 113.472 22.57 113.472 22.423C113.472 22.1243 113.374 21.8992 113.178 21.7475C112.982 21.5958 112.688 21.52 112.296 21.52H111.554V23.4135H112.268ZM114.585 26H113.983C113.86 26 113.769 25.9522 113.71 25.8565L112.408 24.0645C112.369 24.0085 112.325 23.9688 112.279 23.9455C112.234 23.9198 112.164 23.907 112.069 23.907H111.554V26H110.879V20.9845H112.296C112.614 20.9845 112.888 21.0172 113.119 21.0825C113.35 21.1455 113.54 21.2377 113.689 21.359C113.841 21.4803 113.953 21.6273 114.025 21.8C114.098 21.9703 114.134 22.1617 114.134 22.374C114.134 22.5513 114.106 22.717 114.05 22.871C113.994 23.025 113.912 23.1638 113.805 23.2875C113.7 23.4088 113.57 23.5127 113.416 23.599C113.265 23.6853 113.092 23.7507 112.898 23.795C112.985 23.844 113.059 23.9152 113.122 24.0085L114.585 26ZM116.943 23.1825H117.198C117.287 23.1825 117.358 23.172 117.412 23.151C117.466 23.1277 117.515 23.0892 117.559 23.0355L119.228 21.1455C119.275 21.0848 119.324 21.0428 119.375 21.0195C119.427 20.9962 119.49 20.9845 119.564 20.9845H120.138L118.227 23.144C118.181 23.2 118.135 23.2467 118.091 23.284C118.049 23.319 118.003 23.3482 117.954 23.3715C118.017 23.3925 118.075 23.424 118.126 23.466C118.177 23.5057 118.227 23.5582 118.276 23.6235L120.271 26H119.683C119.639 26 119.601 25.9977 119.568 25.993C119.538 25.986 119.511 25.9767 119.487 25.965C119.464 25.951 119.443 25.9358 119.424 25.9195C119.408 25.9008 119.392 25.8798 119.375 25.8565L117.646 23.865C117.6 23.8067 117.55 23.7658 117.496 23.7425C117.442 23.7168 117.361 23.704 117.251 23.704H116.943V26H116.267V20.9845H116.943V23.1825ZM124.996 25.447L124.993 26H121.902V20.9845H124.993V21.5375H122.581V23.2035H124.534V23.7355H122.581V25.447H124.996ZM130.334 21.555H128.71V26H128.034V21.555H126.407V20.9845H130.334V21.555ZM132.757 26H132.078V20.9845H132.757V26ZM139.103 20.9845V26H138.764C138.71 26 138.665 25.9907 138.627 25.972C138.592 25.9533 138.557 25.9218 138.522 25.8775L135.621 22.0975C135.626 22.1558 135.629 22.213 135.631 22.269C135.634 22.325 135.635 22.3775 135.635 22.4265V26H135.04V20.9845H135.39C135.42 20.9845 135.446 20.9868 135.467 20.9915C135.488 20.9938 135.507 20.9997 135.523 21.009C135.539 21.016 135.556 21.0277 135.572 21.044C135.588 21.058 135.606 21.0767 135.624 21.1L138.526 24.8765C138.521 24.8158 138.517 24.7575 138.512 24.7015C138.51 24.6432 138.508 24.5883 138.508 24.537V20.9845H139.103ZM145.46 23.5885V25.5135C145.208 25.6955 144.938 25.832 144.651 25.923C144.366 26.0117 144.054 26.056 143.713 26.056C143.309 26.056 142.945 25.9942 142.621 25.8705C142.297 25.7445 142.019 25.5695 141.788 25.3455C141.559 25.1192 141.383 24.8485 141.26 24.5335C141.136 24.2185 141.074 23.872 141.074 23.494C141.074 23.1113 141.134 22.7625 141.253 22.4475C141.374 22.1325 141.545 21.863 141.767 21.639C141.989 21.4127 142.258 21.2377 142.576 21.114C142.893 20.9903 143.248 20.9285 143.64 20.9285C143.838 20.9285 144.022 20.9437 144.193 20.974C144.363 21.002 144.52 21.044 144.665 21.1C144.81 21.1537 144.944 21.2202 145.068 21.2995C145.191 21.3765 145.307 21.464 145.414 21.562L145.222 21.87C145.191 21.9167 145.152 21.947 145.103 21.961C145.056 21.9727 145.003 21.961 144.945 21.926C144.889 21.8933 144.825 21.8537 144.753 21.807C144.68 21.7603 144.592 21.716 144.487 21.674C144.384 21.6297 144.261 21.5923 144.119 21.562C143.979 21.5317 143.812 21.5165 143.619 21.5165C143.336 21.5165 143.081 21.5632 142.852 21.6565C142.623 21.7475 142.429 21.8793 142.268 22.052C142.107 22.2223 141.983 22.43 141.897 22.675C141.81 22.9177 141.767 23.1907 141.767 23.494C141.767 23.809 141.811 24.0913 141.9 24.341C141.991 24.5883 142.119 24.7995 142.285 24.9745C142.453 25.1472 142.656 25.279 142.894 25.37C143.132 25.461 143.399 25.5065 143.696 25.5065C143.929 25.5065 144.135 25.4808 144.315 25.4295C144.497 25.3758 144.674 25.3023 144.847 25.209V24.1065H144.067C144.022 24.1065 143.986 24.0937 143.958 24.068C143.932 24.0423 143.92 24.0108 143.92 23.9735V23.5885H145.46ZM100.304 33.138L99.5165 31.0975C99.4932 31.0368 99.4687 30.9668 99.443 30.8875C99.4173 30.8058 99.3928 30.7195 99.3695 30.6285C99.3205 30.8175 99.2703 30.975 99.219 31.101L98.4315 33.138H100.304ZM101.718 35H101.193C101.132 35 101.083 34.9848 101.046 34.9545C101.009 34.9242 100.981 34.8857 100.962 34.839L100.493 33.628H98.2425L97.7735 34.839C97.7595 34.881 97.7327 34.9183 97.693 34.951C97.6533 34.9837 97.6043 35 97.546 35H97.021L99.0265 29.9845H99.7125L101.718 35ZM107.322 32.5885V34.5135C107.07 34.6955 106.8 34.832 106.513 34.923C106.229 35.0117 105.916 35.056 105.575 35.056C105.172 35.056 104.808 34.9942 104.483 34.8705C104.159 34.7445 103.881 34.5695 103.65 34.3455C103.422 34.1192 103.246 33.8485 103.122 33.5335C102.998 33.2185 102.936 32.872 102.936 32.494C102.936 32.1113 102.996 31.7625 103.115 31.4475C103.236 31.1325 103.408 30.863 103.629 30.639C103.851 30.4127 104.121 30.2377 104.438 30.114C104.755 29.9903 105.11 29.9285 105.502 29.9285C105.7 29.9285 105.885 29.9437 106.055 29.974C106.225 30.002 106.383 30.044 106.527 30.1C106.672 30.1537 106.806 30.2202 106.93 30.2995C107.054 30.3765 107.169 30.464 107.276 30.562L107.084 30.87C107.054 30.9167 107.014 30.947 106.965 30.961C106.918 30.9727 106.866 30.961 106.807 30.926C106.751 30.8933 106.687 30.8537 106.615 30.807C106.543 30.7603 106.454 30.716 106.349 30.674C106.246 30.6297 106.124 30.5923 105.981 30.562C105.841 30.5317 105.675 30.5165 105.481 30.5165C105.199 30.5165 104.943 30.5632 104.714 30.6565C104.486 30.7475 104.291 30.8793 104.13 31.052C103.969 31.2223 103.845 31.43 103.759 31.675C103.673 31.9177 103.629 32.1907 103.629 32.494C103.629 32.809 103.674 33.0913 103.762 33.341C103.853 33.5883 103.982 33.7995 104.147 33.9745C104.315 34.1472 104.518 34.279 104.756 34.37C104.994 34.461 105.262 34.5065 105.558 34.5065C105.791 34.5065 105.998 34.4808 106.177 34.4295C106.359 34.3758 106.537 34.3023 106.709 34.209V33.1065H105.929C105.885 33.1065 105.848 33.0937 105.82 33.068C105.795 33.0423 105.782 33.0108 105.782 32.9735V32.5885H107.322ZM112.455 34.447L112.452 35H109.361V29.9845H112.452V30.5375H110.04V32.2035H111.993V32.7355H110.04V34.447H112.455ZM118.465 29.9845V35H118.125C118.072 35 118.026 34.9907 117.989 34.972C117.954 34.9533 117.919 34.9218 117.884 34.8775L114.982 31.0975C114.987 31.1558 114.99 31.213 114.993 31.269C114.995 31.325 114.996 31.3775 114.996 31.4265V35H114.401V29.9845H114.751C114.782 29.9845 114.807 29.9868 114.828 29.9915C114.849 29.9938 114.868 29.9997 114.884 30.009C114.901 30.016 114.917 30.0277 114.933 30.044C114.95 30.058 114.967 30.0767 114.986 30.1L117.887 33.8765C117.883 33.8158 117.878 33.7575 117.873 33.7015C117.871 33.6432 117.87 33.5883 117.87 33.537V29.9845H118.465ZM124.268 33.964C124.305 33.964 124.338 33.9792 124.366 34.0095L124.635 34.3C124.43 34.538 124.18 34.7235 123.886 34.8565C123.595 34.9895 123.241 35.056 122.826 35.056C122.467 35.056 122.14 34.9942 121.846 34.8705C121.552 34.7445 121.301 34.5695 121.093 34.3455C120.886 34.1192 120.725 33.8485 120.61 33.5335C120.496 33.2185 120.439 32.872 120.439 32.494C120.439 32.116 120.498 31.7695 120.617 31.4545C120.736 31.1395 120.903 30.8688 121.118 30.6425C121.335 30.4162 121.594 30.2412 121.895 30.1175C122.196 29.9915 122.528 29.9285 122.892 29.9285C123.249 29.9285 123.564 29.9857 123.837 30.1C124.11 30.2143 124.351 30.3695 124.558 30.5655L124.334 30.877C124.32 30.9003 124.302 30.9202 124.278 30.9365C124.257 30.9505 124.228 30.9575 124.191 30.9575C124.149 30.9575 124.098 30.9353 124.037 30.891C123.976 30.8443 123.897 30.793 123.799 30.737C123.701 30.681 123.578 30.6308 123.431 30.5865C123.284 30.5398 123.104 30.5165 122.889 30.5165C122.63 30.5165 122.393 30.562 122.178 30.653C121.964 30.7417 121.778 30.8712 121.622 31.0415C121.468 31.2118 121.348 31.4195 121.261 31.6645C121.175 31.9095 121.132 32.186 121.132 32.494C121.132 32.8067 121.176 33.0855 121.265 33.3305C121.356 33.5755 121.478 33.7832 121.632 33.9535C121.789 34.1215 121.972 34.2498 122.182 34.3385C122.394 34.4272 122.623 34.4715 122.868 34.4715C123.017 34.4715 123.151 34.4633 123.27 34.447C123.392 34.4283 123.503 34.4003 123.603 34.363C123.706 34.3257 123.8 34.279 123.886 34.223C123.975 34.1647 124.063 34.0958 124.149 34.0165C124.189 33.9815 124.228 33.964 124.268 33.964ZM128.306 33.0015V35H127.627V33.0015L125.789 29.9845H126.384C126.445 29.9845 126.493 29.9997 126.528 30.03C126.563 30.058 126.593 30.0953 126.619 30.142L127.767 32.0915C127.809 32.1732 127.847 32.2502 127.882 32.3225C127.917 32.3925 127.948 32.4637 127.973 32.536C127.999 32.4637 128.028 32.3925 128.061 32.3225C128.093 32.2502 128.13 32.1732 128.169 32.0915L129.314 30.142C129.335 30.1023 129.364 30.0662 129.401 30.0335C129.439 30.0008 129.486 29.9845 129.545 29.9845H130.143L128.306 33.0015Z" fill="white"/>
<line x1="89.4" y1="10" x2="89.4" y2="37" stroke="white" stroke-width="0.8"/>
</svg>
