<svg width="176" height="32" viewBox="0 0 176 32" fill="none" xmlns="http://www.w3.org/2000/svg">
<path d="M15.0489 2.92705C15.3483 2.00574 16.6517 2.00574 16.9511 2.92705L19.3677 10.3647C19.5016 10.7768 19.8855 11.0557 20.3188 11.0557H28.1392C29.1079 11.0557 29.5107 12.2953 28.727 12.8647L22.4001 17.4615C22.0496 17.7161 21.903 18.1675 22.0369 18.5795L24.4535 26.0172C24.7529 26.9385 23.6984 27.7047 22.9147 27.1353L16.5878 22.5385C16.2373 22.2839 15.7627 22.2839 15.4122 22.5385L9.08533 27.1353C8.30162 27.7047 7.24714 26.9385 7.54649 26.0172L9.96315 18.5795C10.097 18.1675 9.95036 17.7161 9.59987 17.4615L3.27299 12.8647C2.48928 12.2953 2.89206 11.0557 3.86078 11.0557H11.6812C12.1145 11.0557 12.4984 10.7768 12.6323 10.3647L15.0489 2.92705Z" fill="#FFA600"/>
<path d="M51.0489 2.92705C51.3483 2.00574 52.6517 2.00574 52.9511 2.92705L55.3677 10.3647C55.5016 10.7768 55.8855 11.0557 56.3188 11.0557H64.1392C65.1079 11.0557 65.5107 12.2953 64.727 12.8647L58.4001 17.4615C58.0496 17.7161 57.903 18.1675 58.0369 18.5795L60.4535 26.0172C60.7529 26.9385 59.6984 27.7047 58.9147 27.1353L52.5878 22.5385C52.2373 22.2839 51.7627 22.2839 51.4122 22.5385L45.0853 27.1353C44.3016 27.7047 43.2471 26.9385 43.5465 26.0172L45.9631 18.5795C46.097 18.1675 45.9504 17.7161 45.5999 17.4615L39.273 12.8647C38.4893 12.2953 38.8921 11.0557 39.8608 11.0557H47.6812C48.1145 11.0557 48.4984 10.7768 48.6323 10.3647L51.0489 2.92705Z" fill="#FFA600"/>
<path d="M87.0489 2.92705C87.3483 2.00574 88.6517 2.00574 88.9511 2.92705L91.3677 10.3647C91.5016 10.7768 91.8855 11.0557 92.3188 11.0557H100.139C101.108 11.0557 101.511 12.2953 100.727 12.8647L94.4001 17.4615C94.0496 17.7161 93.903 18.1675 94.0369 18.5795L96.4535 26.0172C96.7529 26.9385 95.6984 27.7047 94.9147 27.1353L88.5878 22.5385C88.2373 22.2839 87.7627 22.2839 87.4122 22.5385L81.0853 27.1353C80.3016 27.7047 79.2471 26.9385 79.5465 26.0172L81.9631 18.5795C82.097 18.1675 81.9504 17.7161 81.5999 17.4615L75.273 12.8647C74.4893 12.2953 74.8921 11.0557 75.8608 11.0557H83.6812C84.1145 11.0557 84.4984 10.7768 84.6323 10.3647L87.0489 2.92705Z" fill="#FFA600"/>
<path d="M159.049 2.92705C159.348 2.00574 160.652 2.00574 160.951 2.92705L163.368 10.3647C163.502 10.7768 163.886 11.0557 164.319 11.0557H172.139C173.108 11.0557 173.511 12.2953 172.727 12.8647L166.4 17.4615C166.05 17.7161 165.903 18.1675 166.037 18.5795L168.454 26.0172C168.753 26.9385 167.698 27.7047 166.915 27.1353L160.588 22.5385C160.237 22.2839 159.763 22.2839 159.412 22.5385L153.085 27.1353C152.302 27.7047 151.247 26.9385 151.546 26.0172L153.963 18.5795C154.097 18.1675 153.95 17.7161 153.6 17.4615L147.273 12.8647C146.489 12.2953 146.892 11.0557 147.861 11.0557H155.681C156.114 11.0557 156.498 10.7768 156.632 10.3647L159.049 2.92705Z" fill="#FFA600"/>
<path d="M123.049 2.92705C123.348 2.00574 124.652 2.00574 124.951 2.92705L127.368 10.3647C127.502 10.7768 127.886 11.0557 128.319 11.0557H136.139C137.108 11.0557 137.511 12.2953 136.727 12.8647L130.4 17.4615C130.05 17.7161 129.903 18.1675 130.037 18.5795L132.454 26.0172C132.753 26.9385 131.698 27.7047 130.915 27.1353L124.588 22.5385C124.237 22.2839 123.763 22.2839 123.412 22.5385L117.085 27.1353C116.302 27.7047 115.247 26.9385 115.546 26.0172L117.963 18.5795C118.097 18.1675 117.95 17.7161 117.6 17.4615L111.273 12.8647C110.489 12.2953 110.892 11.0557 111.861 11.0557H119.681C120.114 11.0557 120.498 10.7768 120.632 10.3647L123.049 2.92705Z" fill="#FFA600"/>
</svg>
